<svg id="svg" version="1.1" xmlns="http://www.w3.org/2000/svg" xmlns:xlink="http://www.w3.org/1999/xlink" width="400" height="400" viewBox="0, 0, 400,400"><g id="svgg"><path id="path0" d="M11.700 197.451 C 11.322 197.614,11.200 199.762,11.200 206.233 L 11.200 214.800 12.184 214.800 C 13.140 214.800,13.171 214.707,13.284 211.500 L 13.400 208.200 21.671 208.092 L 29.942 207.984 30.971 206.761 C 32.559 204.874,32.485 200.556,30.834 198.706 L 29.667 197.400 20.934 197.317 C 16.130 197.272,11.975 197.332,11.700 197.451 M37.067 197.467 C 36.282 198.251,36.792 214.800,37.600 214.800 C 38.319 214.800,38.400 214.533,38.400 212.174 C 38.400 207.841,38.103 208.000,46.195 208.000 C 55.362 208.000,55.583 208.110,55.595 212.700 C 55.600 214.672,55.661 214.800,56.600 214.800 C 57.782 214.800,58.093 210.353,57.050 208.356 C 56.590 207.474,56.591 207.109,57.053 206.010 C 58.400 202.805,57.389 198.772,54.986 197.768 C 53.561 197.173,37.629 196.904,37.067 197.467 M64.884 197.782 C 61.994 199.085,61.600 200.095,61.600 206.212 C 61.600 214.210,62.309 214.800,71.919 214.800 C 81.481 214.800,82.400 214.042,82.400 206.157 C 82.400 198.279,81.464 197.449,72.400 197.294 C 67.600 197.212,65.903 197.322,64.884 197.782 M89.903 197.769 C 85.069 199.495,84.263 210.858,88.759 213.885 C 90.663 215.166,102.596 215.287,104.632 214.046 C 106.827 212.707,108.153 207.689,106.643 206.435 C 105.562 205.539,97.000 206.040,97.000 207.000 C 97.000 207.741,97.305 207.808,101.100 207.914 C 105.138 208.026,105.200 208.043,105.200 208.995 C 105.200 212.270,103.553 212.915,95.664 212.733 C 88.188 212.560,88.330 212.696,88.488 205.856 L 88.600 201.030 89.959 200.115 C 93.207 197.929,103.645 198.980,105.016 201.632 C 105.831 203.207,107.037 203.075,106.916 201.423 C 106.808 199.942,105.031 198.102,103.223 197.600 C 101.102 197.011,91.693 197.130,89.903 197.769 M112.300 197.465 C 111.661 197.642,111.600 198.407,111.600 206.229 L 111.600 214.800 112.600 214.800 C 113.565 214.800,113.600 214.708,113.600 212.174 C 113.600 207.838,113.297 208.000,121.440 208.000 C 130.511 208.000,130.784 208.126,130.794 212.328 C 130.800 214.719,130.849 214.849,131.700 214.728 C 132.700 214.586,133.008 209.014,132.077 207.893 C 131.771 207.524,131.829 206.837,132.285 205.453 C 133.193 202.696,132.639 199.402,131.072 198.238 C 129.975 197.424,114.719 196.795,112.300 197.465 M308.052 197.738 C 307.038 198.959,307.641 214.577,308.708 214.729 L 309.616 214.858 309.508 206.162 C 309.401 197.507,309.201 196.353,308.052 197.738 M315.039 197.494 C 314.908 197.626,314.800 201.573,314.800 206.267 L 314.800 214.800 315.800 214.800 L 316.800 214.800 316.800 208.000 C 316.800 204.260,316.935 201.201,317.100 201.203 C 317.645 201.207,319.380 202.535,326.898 208.700 C 336.688 216.727,336.000 216.918,336.000 206.173 L 336.000 197.547 334.900 197.673 L 333.800 197.800 333.690 204.300 C 333.614 208.773,333.440 210.800,333.131 210.800 C 332.769 210.800,329.603 208.471,328.800 207.614 C 328.690 207.496,327.700 206.686,326.600 205.814 C 325.500 204.941,324.510 204.130,324.400 204.011 C 322.426 201.876,315.488 197.046,315.039 197.494 M341.292 197.515 C 340.902 197.778,340.809 199.807,340.892 206.229 L 341.000 214.600 349.552 214.708 L 358.103 214.816 359.494 213.755 C 362.980 211.096,363.125 201.110,359.715 198.508 L 358.264 197.400 350.032 197.287 C 345.504 197.224,341.571 197.327,341.292 197.515 M368.518 197.627 C 366.607 198.203,366.000 199.358,366.000 202.419 C 366.000 206.830,366.298 206.974,375.731 207.112 C 384.235 207.237,384.800 207.420,384.800 210.044 C 384.800 212.536,383.980 212.800,376.231 212.800 C 369.380 212.800,369.241 212.783,368.073 211.800 C 366.601 210.562,365.996 210.532,366.013 211.700 C 366.050 214.366,367.523 214.801,376.474 214.791 C 383.190 214.783,384.312 214.692,385.053 214.091 C 387.218 212.337,387.516 208.451,385.640 206.442 L 384.479 205.200 376.869 205.200 L 369.258 205.200 368.429 204.146 C 367.323 202.739,367.383 201.380,368.608 200.156 L 369.615 199.149 376.586 199.274 C 383.269 199.395,383.591 199.438,384.414 200.322 C 386.242 202.286,387.449 200.740,385.656 198.732 L 384.467 197.400 377.134 197.320 C 373.100 197.277,369.223 197.415,368.518 197.627 M145.924 198.900 C 144.283 201.098,135.600 214.244,135.600 214.531 C 135.600 215.460,137.630 214.630,138.612 213.300 C 140.473 210.779,140.403 210.800,147.176 210.805 C 154.740 210.812,154.752 210.815,156.150 213.024 C 157.070 214.479,157.490 214.800,158.470 214.800 C 159.982 214.800,160.348 215.501,153.800 205.862 C 147.824 197.065,147.505 196.783,145.924 198.900 M29.111 199.823 C 30.125 200.533,30.418 204.622,29.520 205.520 C 29.179 205.861,26.747 206.000,21.120 206.000 L 13.200 206.000 13.200 202.833 C 13.200 200.674,13.359 199.602,13.700 199.465 C 15.082 198.907,28.240 199.213,29.111 199.823 M54.175 199.661 C 55.731 200.370,56.077 204.761,54.650 205.694 C 53.651 206.346,38.903 206.045,38.643 205.367 C 38.252 204.348,38.364 200.815,38.814 199.974 C 39.311 199.046,52.246 198.783,54.175 199.661 M78.678 199.982 C 80.953 201.369,81.243 209.973,79.078 211.835 C 77.846 212.894,67.797 213.311,65.407 212.403 C 62.079 211.137,62.390 200.974,65.800 199.578 C 67.596 198.843,77.310 199.148,78.678 199.982 M129.326 199.660 C 130.974 200.527,131.451 203.818,130.138 205.269 C 129.199 206.307,114.238 206.397,113.843 205.367 C 113.452 204.348,113.564 200.815,114.014 199.974 C 114.510 199.046,127.649 198.777,129.326 199.660 M357.483 199.619 C 359.980 200.490,361.035 209.542,358.890 211.689 C 357.773 212.807,343.809 213.372,343.146 212.326 C 342.663 211.565,342.722 200.892,343.214 199.974 C 343.692 199.081,355.124 198.797,357.483 199.619 M150.339 204.438 C 153.364 208.906,153.434 208.800,147.443 208.800 C 141.373 208.800,141.546 209.050,144.520 204.574 C 147.558 200.001,147.339 200.006,150.339 204.438 " stroke="none" fill="#ececec" fill-rule="evenodd"></path><path id="path1" d="M0.000 200.000 L 0.000 400.000 200.000 400.000 L 400.000 400.000 400.000 200.000 L 400.000 0.000 200.000 0.000 L 0.000 0.000 0.000 200.000 M307.120 110.880 C 308.180 111.940,307.551 113.456,303.895 118.657 C 299.062 125.532,292.299 135.079,286.792 142.800 C 284.359 146.210,280.981 150.959,279.285 153.354 C 277.588 155.748,275.660 158.463,275.000 159.386 C 272.684 162.624,267.394 170.084,266.800 170.948 C 265.845 172.338,260.524 179.836,257.397 184.200 C 255.820 186.400,251.859 191.980,248.593 196.600 C 245.327 201.220,241.369 206.800,239.796 209.000 C 238.223 211.200,233.423 217.950,229.130 224.000 C 224.836 230.050,220.301 236.440,219.051 238.200 C 217.801 239.960,215.218 243.619,213.311 246.332 C 208.909 252.595,208.050 253.250,206.400 251.600 C 204.779 249.979,207.496 245.724,225.435 221.795 C 230.252 215.370,230.866 217.460,219.477 201.536 C 211.000 189.684,204.862 181.135,203.584 179.400 C 201.688 176.828,197.493 170.983,193.534 165.400 C 184.881 153.198,180.939 147.846,180.493 147.698 C 180.104 147.568,180.000 158.478,180.000 199.305 L 180.000 251.076 179.173 251.825 C 178.136 252.763,176.401 251.992,175.956 250.394 C 175.163 247.542,175.585 140.229,176.396 138.900 C 176.832 138.185,177.473 137.600,177.820 137.600 C 179.429 137.600,179.016 137.076,193.738 157.800 C 195.926 160.880,198.313 164.210,199.042 165.200 C 199.772 166.190,206.327 175.370,213.608 185.600 C 220.890 195.830,227.179 204.622,227.584 205.138 C 227.990 205.654,229.104 207.224,230.061 208.628 C 232.083 211.597,232.806 211.785,234.175 209.700 C 234.717 208.875,237.202 205.320,239.698 201.800 C 242.194 198.280,248.166 189.820,252.970 183.000 C 257.773 176.180,262.186 169.970,262.776 169.200 C 263.365 168.430,265.673 165.190,267.904 162.000 C 271.687 156.590,274.653 152.394,286.099 136.254 C 288.575 132.763,290.870 129.516,291.200 129.038 C 303.977 110.522,305.278 109.038,307.120 110.880 M291.085 157.600 C 291.622 158.667,291.873 242.133,291.347 244.764 C 290.835 247.323,287.913 247.390,287.210 244.858 C 286.949 243.921,286.804 229.721,286.802 205.100 C 286.801 184.035,286.665 166.806,286.500 166.813 C 286.335 166.820,285.300 168.100,284.200 169.657 C 283.100 171.215,280.760 174.513,279.000 176.987 C 277.240 179.461,273.776 184.346,271.301 187.843 C 268.827 191.339,266.025 195.280,265.074 196.600 C 263.240 199.147,252.495 214.256,242.601 228.200 C 239.323 232.820,233.563 240.920,229.801 246.200 C 226.039 251.480,218.931 261.470,214.005 268.400 C 197.984 290.939,199.041 289.600,197.267 289.600 C 193.649 289.600,194.796 287.290,206.736 270.540 C 216.489 256.857,223.424 247.148,227.694 241.200 C 230.300 237.570,233.627 232.890,235.087 230.800 C 236.548 228.710,238.670 225.740,239.804 224.200 C 240.937 222.660,247.683 213.210,254.795 203.200 C 261.906 193.190,268.394 184.100,269.211 183.000 C 270.028 181.900,273.179 177.490,276.213 173.200 C 289.213 154.820,289.522 154.495,291.085 157.600 M30.235 197.859 C 33.006 199.676,33.202 205.438,30.566 207.629 C 30.039 208.067,27.959 208.247,21.640 208.400 L 13.400 208.600 13.283 211.725 L 13.165 214.850 12.083 214.725 L 11.000 214.600 10.892 206.690 C 10.823 201.689,10.938 198.489,11.206 197.990 C 11.800 196.878,28.562 196.764,30.235 197.859 M55.564 197.781 C 57.183 198.618,57.714 200.232,57.437 203.469 C 57.155 206.769,57.155 207.296,57.438 211.500 L 57.661 214.800 56.430 214.800 L 55.200 214.800 55.200 212.014 C 55.200 208.344,55.338 208.400,46.226 208.400 L 38.800 208.400 38.800 211.600 L 38.800 214.800 37.600 214.800 L 36.400 214.800 36.400 206.267 C 36.400 201.573,36.520 197.613,36.667 197.467 C 37.246 196.887,54.386 197.172,55.564 197.781 M79.862 198.039 C 82.067 199.401,82.400 200.494,82.400 206.380 L 82.400 211.600 80.800 213.200 L 79.200 214.800 72.100 214.799 C 61.947 214.796,61.199 214.188,61.201 205.940 C 61.203 200.825,61.702 199.458,64.096 197.998 C 66.109 196.771,77.860 196.801,79.862 198.039 M104.705 197.999 C 106.147 198.878,107.450 201.172,107.069 202.164 C 106.699 203.130,105.385 202.924,104.882 201.821 C 103.804 199.455,91.413 198.414,89.313 200.513 C 88.022 201.805,88.036 209.932,89.332 211.439 C 91.453 213.906,103.410 213.265,104.673 210.617 C 105.784 208.285,105.362 208.000,100.800 208.000 C 96.659 208.000,95.526 207.515,96.767 206.273 C 97.353 205.686,103.229 205.426,105.400 205.891 L 107.000 206.233 107.119 208.960 L 107.239 211.687 105.602 213.244 L 103.966 214.800 96.963 214.800 C 86.814 214.800,85.999 214.140,86.001 205.916 C 86.003 200.828,86.505 199.456,88.896 197.998 C 90.860 196.801,102.742 196.802,104.705 197.999 M130.544 197.647 C 132.253 198.426,132.909 200.226,132.640 203.402 C 132.354 206.779,132.354 207.286,132.639 211.530 L 132.863 214.859 131.731 214.730 C 130.628 214.603,130.597 214.533,130.482 211.904 C 130.325 208.318,130.429 208.358,121.509 208.491 L 114.200 208.600 114.083 211.700 L 113.966 214.800 112.783 214.800 L 111.600 214.800 111.600 206.267 C 111.600 201.573,111.720 197.613,111.867 197.467 C 112.337 196.996,129.478 197.161,130.544 197.647 M148.938 198.500 C 151.549 201.966,159.596 214.045,159.599 214.500 C 159.604 215.683,157.081 214.655,155.915 213.000 L 154.646 211.200 147.623 211.206 C 139.923 211.213,140.147 211.159,138.846 213.300 C 138.029 214.644,135.200 215.635,135.200 214.576 C 135.200 213.944,146.992 197.200,147.437 197.200 C 147.724 197.200,148.400 197.785,148.938 198.500 M309.800 206.000 L 309.800 214.600 308.700 214.727 L 307.600 214.853 307.600 206.293 C 307.600 197.385,307.645 197.092,308.984 197.283 C 309.777 197.397,309.800 197.647,309.800 206.000 M317.839 198.510 C 318.740 199.220,320.465 200.610,321.673 201.600 C 322.881 202.590,325.203 204.470,326.834 205.779 C 328.465 207.087,329.890 208.266,330.000 208.400 C 330.110 208.533,330.873 209.148,331.696 209.765 C 333.596 211.192,333.568 211.279,333.696 203.600 L 333.800 197.400 334.800 197.400 L 335.800 197.400 335.908 206.100 L 336.016 214.800 335.067 214.800 C 334.433 214.800,331.427 212.603,326.014 208.182 C 321.557 204.542,317.705 201.632,317.455 201.716 C 317.143 201.820,316.984 203.875,316.950 208.234 L 316.899 214.600 315.850 214.727 L 314.800 214.853 314.800 206.293 C 314.800 196.099,314.794 196.113,317.839 198.510 M358.886 197.833 C 361.406 199.047,361.785 200.021,361.931 205.660 C 362.159 214.472,361.718 214.796,349.500 214.799 L 340.800 214.800 340.800 206.267 C 340.800 201.573,340.920 197.613,341.067 197.467 C 341.681 196.852,357.526 197.178,358.886 197.833 M384.526 197.647 C 385.677 198.235,386.780 199.625,386.791 200.500 C 386.803 201.458,385.387 201.405,384.109 200.400 C 383.181 199.670,382.486 199.600,376.175 199.600 C 368.479 199.600,368.000 199.749,368.000 202.152 C 368.000 204.684,368.188 204.743,376.675 204.878 L 384.349 205.000 385.575 206.175 C 387.368 207.894,387.398 211.864,385.631 213.631 L 384.462 214.800 376.320 214.800 C 367.715 214.800,366.996 214.661,366.005 212.808 C 365.022 210.972,366.681 210.173,368.305 211.700 C 369.197 212.539,369.678 212.609,375.370 212.727 C 383.571 212.898,384.163 212.730,384.325 210.190 C 384.513 207.258,384.348 207.202,375.624 207.191 C 369.194 207.183,368.086 207.090,367.347 206.491 C 365.057 204.637,364.863 200.657,366.960 198.560 L 368.320 197.200 375.986 197.200 C 380.845 197.200,383.973 197.364,384.526 197.647 M13.367 200.142 C 13.252 200.440,13.213 201.835,13.279 203.242 L 13.400 205.800 21.085 205.909 L 28.770 206.017 29.436 205.001 C 30.216 203.810,30.025 200.515,29.144 199.957 C 28.175 199.343,13.608 199.514,13.367 200.142 M38.800 202.800 L 38.800 206.000 46.520 206.000 C 55.367 206.000,55.200 206.063,55.200 202.734 C 55.200 199.618,55.148 199.600,46.226 199.600 L 38.800 199.600 38.800 202.800 M65.294 200.015 C 63.284 200.822,62.739 209.354,64.562 211.474 C 66.152 213.322,77.403 213.397,79.229 211.571 C 80.592 210.208,80.372 201.551,78.946 200.429 C 77.796 199.524,67.308 199.206,65.294 200.015 M114.267 199.867 C 114.120 200.013,114.000 201.453,114.000 203.067 L 114.000 206.000 121.720 206.000 C 130.547 206.000,130.400 206.054,130.400 202.800 C 130.400 201.568,130.184 200.344,129.920 200.080 C 129.402 199.562,114.771 199.362,114.267 199.867 M343.200 205.957 C 343.200 213.511,342.451 212.800,350.407 212.800 C 359.394 212.800,359.569 212.669,359.587 205.929 C 359.605 199.428,359.856 199.600,350.346 199.600 L 343.200 199.600 343.200 205.957 M147.091 201.316 C 146.123 202.072,142.382 208.048,142.628 208.445 C 143.044 209.119,152.400 208.883,152.400 208.199 C 152.400 206.837,147.746 200.803,147.091 201.316 " stroke="none" fill="#040404" fill-rule="evenodd"></path><path id="path2" d="M301.919 113.900 C 299.830 116.742,294.134 124.786,291.200 129.038 C 290.870 129.516,288.575 132.763,286.099 136.254 C 274.653 152.394,271.687 156.590,267.904 162.000 C 265.673 165.190,263.365 168.430,262.776 169.200 C 262.186 169.970,257.773 176.180,252.970 183.000 C 248.166 189.820,242.194 198.280,239.698 201.800 C 237.202 205.320,234.717 208.875,234.175 209.700 C 232.806 211.785,232.083 211.597,230.061 208.628 C 229.104 207.224,227.990 205.654,227.584 205.138 C 227.179 204.622,220.890 195.830,213.608 185.600 C 206.327 175.370,199.772 166.190,199.042 165.200 C 198.313 164.210,195.926 160.880,193.738 157.800 C 179.016 137.076,179.429 137.600,177.820 137.600 C 177.473 137.600,176.832 138.185,176.396 138.900 C 175.585 140.229,175.163 247.542,175.956 250.394 C 176.401 251.992,178.136 252.763,179.173 251.825 L 180.000 251.076 180.000 199.305 C 180.000 158.478,180.104 147.568,180.493 147.698 C 180.939 147.846,184.881 153.198,193.534 165.400 C 197.493 170.983,201.688 176.828,203.584 179.400 C 204.862 181.135,211.000 189.684,219.477 201.536 C 230.866 217.460,230.252 215.370,225.435 221.795 C 213.898 237.184,205.600 249.021,205.600 250.088 C 205.600 250.911,206.960 252.400,207.711 252.400 C 208.766 252.400,209.940 251.127,213.311 246.332 C 215.218 243.619,217.801 239.960,219.051 238.200 C 220.301 236.440,224.836 230.050,229.130 224.000 C 233.423 217.950,238.223 211.200,239.796 209.000 C 241.369 206.800,245.327 201.220,248.593 196.600 C 251.859 191.980,255.820 186.400,257.397 184.200 C 260.524 179.836,265.845 172.338,266.800 170.948 C 267.394 170.084,272.684 162.624,275.000 159.386 C 275.660 158.463,277.588 155.748,279.285 153.354 C 280.981 150.959,284.359 146.210,286.792 142.800 C 292.299 135.079,299.062 125.532,303.895 118.657 C 308.281 112.417,308.690 110.400,305.566 110.400 C 304.679 110.400,304.045 111.008,301.919 113.900 M287.761 157.282 C 286.748 158.425,283.330 163.137,276.213 173.200 C 273.179 177.490,270.028 181.900,269.211 183.000 C 268.394 184.100,261.906 193.190,254.795 203.200 C 247.683 213.210,240.937 222.660,239.804 224.200 C 238.670 225.740,236.548 228.710,235.087 230.800 C 233.627 232.890,230.300 237.570,227.694 241.200 C 223.424 247.148,216.489 256.857,206.736 270.540 C 194.796 287.290,193.649 289.600,197.267 289.600 C 199.041 289.600,197.984 290.939,214.005 268.400 C 218.931 261.470,226.039 251.480,229.801 246.200 C 233.563 240.920,239.323 232.820,242.601 228.200 C 252.495 214.256,263.240 199.147,265.074 196.600 C 266.025 195.280,268.827 191.339,271.301 187.843 C 273.776 184.346,277.240 179.461,279.000 176.987 C 280.760 174.513,283.100 171.215,284.200 169.657 C 285.300 168.100,286.335 166.820,286.500 166.813 C 286.665 166.806,286.801 184.035,286.802 205.100 C 286.804 229.721,286.949 243.921,287.210 244.858 C 287.913 247.390,290.835 247.323,291.347 244.764 C 291.873 242.133,291.622 158.667,291.085 157.600 C 290.403 156.245,288.813 156.093,287.761 157.282 M36.579 197.710 C 36.471 197.991,36.432 201.996,36.492 206.610 L 36.602 215.000 36.801 206.100 C 36.996 197.383,36.977 196.673,36.579 197.710 M309.599 205.919 L 309.799 214.600 309.908 206.228 C 309.968 201.624,309.878 197.718,309.708 197.548 C 309.539 197.378,309.490 201.145,309.599 205.919 M10.969 206.400 C 10.969 210.910,11.027 212.755,11.098 210.500 C 11.170 208.245,11.170 204.555,11.098 202.300 C 11.027 200.045,10.969 201.890,10.969 206.400 M17.500 199.498 C 19.535 199.571,22.865 199.571,24.900 199.498 C 26.935 199.425,25.270 199.366,21.200 199.366 C 17.130 199.366,15.465 199.425,17.500 199.498 M42.700 199.498 C 44.735 199.571,48.065 199.571,50.100 199.498 C 52.135 199.425,50.470 199.366,46.400 199.366 C 42.330 199.366,40.665 199.425,42.700 199.498 M69.100 199.497 C 70.695 199.573,73.305 199.573,74.900 199.497 C 76.495 199.421,75.190 199.359,72.000 199.359 C 68.810 199.359,67.505 199.421,69.100 199.497 M93.900 199.497 C 95.495 199.573,98.105 199.573,99.700 199.497 C 101.295 199.421,99.990 199.359,96.800 199.359 C 93.610 199.359,92.305 199.421,93.900 199.497 M114.261 199.500 C 114.158 199.665,116.263 199.753,118.937 199.695 C 128.056 199.499,129.009 199.357,121.724 199.278 C 117.722 199.235,114.363 199.335,114.261 199.500 M346.920 199.498 C 348.855 199.572,351.915 199.571,353.720 199.497 C 355.524 199.423,353.940 199.363,350.200 199.364 C 346.460 199.364,344.984 199.425,346.920 199.498 M372.920 199.498 C 374.855 199.572,377.915 199.571,379.720 199.497 C 381.524 199.423,379.940 199.363,376.200 199.364 C 372.460 199.364,370.984 199.425,372.920 199.498 M365.724 202.200 C 365.726 203.520,365.801 204.012,365.890 203.293 C 365.979 202.574,365.977 201.494,365.886 200.893 C 365.795 200.292,365.722 200.880,365.724 202.200 M32.128 202.800 C 32.128 204.230,32.201 204.815,32.289 204.100 C 32.378 203.385,32.378 202.215,32.289 201.500 C 32.201 200.785,32.128 201.370,32.128 202.800 M38.528 202.800 C 38.528 204.230,38.601 204.815,38.689 204.100 C 38.778 203.385,38.778 202.215,38.689 201.500 C 38.601 200.785,38.528 201.370,38.528 202.800 M113.728 202.800 C 113.728 204.230,113.801 204.815,113.889 204.100 C 113.978 203.385,113.978 202.215,113.889 201.500 C 113.801 200.785,113.728 201.370,113.728 202.800 M342.960 206.200 C 342.961 209.500,343.022 210.797,343.098 209.082 C 343.173 207.367,343.172 204.667,343.097 203.082 C 343.021 201.497,342.959 202.900,342.960 206.200 M130.520 202.800 C 130.520 204.010,130.595 204.505,130.687 203.900 C 130.778 203.295,130.778 202.305,130.687 201.700 C 130.595 201.095,130.520 201.590,130.520 202.800 M55.301 202.600 C 55.305 203.480,55.387 203.793,55.483 203.295 C 55.579 202.798,55.575 202.078,55.475 201.695 C 55.375 201.313,55.296 201.720,55.301 202.600 M61.354 206.000 C 61.354 208.750,61.418 209.875,61.496 208.500 C 61.574 207.125,61.574 204.875,61.496 203.500 C 61.418 202.125,61.354 203.250,61.354 206.000 M80.148 206.000 C 80.148 208.310,80.214 209.255,80.295 208.100 C 80.376 206.945,80.376 205.055,80.295 203.900 C 80.214 202.745,80.148 203.690,80.148 206.000 M63.344 206.000 C 63.344 208.090,63.412 208.945,63.494 207.900 C 63.576 206.855,63.576 205.145,63.494 204.100 C 63.412 203.055,63.344 203.910,63.344 206.000 M359.740 206.000 C 359.740 207.870,359.809 208.635,359.893 207.700 C 359.977 206.765,359.977 205.235,359.893 204.300 C 359.809 203.365,359.740 204.130,359.740 206.000 M372.480 205.098 C 374.394 205.171,377.634 205.171,379.680 205.098 C 381.726 205.026,380.160 204.966,376.200 204.965 C 372.240 204.965,370.566 205.024,372.480 205.098 M99.712 205.895 C 100.764 205.977,102.384 205.976,103.312 205.892 C 104.240 205.808,103.380 205.741,101.400 205.742 C 99.420 205.743,98.660 205.812,99.712 205.895 M13.461 208.300 C 13.358 208.465,15.643 208.553,18.537 208.496 C 28.105 208.307,29.104 208.158,21.324 208.078 C 17.102 208.035,13.563 208.135,13.461 208.300 M42.700 208.298 C 44.735 208.371,48.065 208.371,50.100 208.298 C 52.135 208.225,50.470 208.166,46.400 208.166 C 42.330 208.166,40.665 208.225,42.700 208.298 M114.261 208.300 C 114.158 208.465,116.263 208.553,118.937 208.495 C 128.056 208.299,129.009 208.157,121.724 208.078 C 117.722 208.035,114.363 208.135,114.261 208.300 M384.493 210.000 C 384.493 210.770,384.575 211.085,384.676 210.700 C 384.776 210.315,384.776 209.685,384.676 209.300 C 384.575 208.915,384.493 209.230,384.493 210.000 M38.534 212.000 C 38.534 213.650,38.605 214.325,38.691 213.500 C 38.778 212.675,38.778 211.325,38.691 210.500 C 38.605 209.675,38.534 210.350,38.534 212.000 M113.734 212.000 C 113.734 213.650,113.805 214.325,113.891 213.500 C 113.978 212.675,113.978 211.325,113.891 210.500 C 113.805 209.675,113.734 210.350,113.734 212.000 M130.528 212.000 C 130.528 213.430,130.601 214.015,130.689 213.300 C 130.778 212.585,130.778 211.415,130.689 210.700 C 130.601 209.985,130.528 210.570,130.528 212.000 M55.328 212.400 C 55.328 213.830,55.401 214.415,55.489 213.700 C 55.578 212.985,55.578 211.815,55.489 211.100 C 55.401 210.385,55.328 210.970,55.328 212.400 M144.120 211.098 C 146.055 211.172,149.115 211.171,150.920 211.097 C 152.724 211.023,151.140 210.963,147.400 210.964 C 143.660 210.964,142.184 211.025,144.120 211.098 " stroke="none" fill="#045eeb" fill-rule="evenodd"></path></g></svg>