<svg xmlns="http://www.w3.org/2000/svg" xmlns:xlink="http://www.w3.org/1999/xlink" width="1080" zoomAndPan="magnify" viewBox="0 0 810 809.999993" height="1080" preserveAspectRatio="xMidYMid meet" version="1.0"><defs><g/><clipPath id="f91c10346d"><path d="M 308.421875 233.652344 L 479.769531 233.652344 L 479.769531 405 L 308.421875 405 Z M 308.421875 233.652344 " clip-rule="nonzero"/></clipPath><clipPath id="5361c3aeab"><path d="M 394.097656 233.652344 C 346.78125 233.652344 308.421875 272.011719 308.421875 319.328125 C 308.421875 366.644531 346.78125 405 394.097656 405 C 441.410156 405 479.769531 366.644531 479.769531 319.328125 C 479.769531 272.011719 441.410156 233.652344 394.097656 233.652344 Z M 394.097656 233.652344 " clip-rule="nonzero"/></clipPath><clipPath id="dfb4b8d038"><path d="M 283.355469 538.394531 L 526 538.394531 L 526 616.097656 L 283.355469 616.097656 Z M 283.355469 538.394531 " clip-rule="nonzero"/></clipPath><clipPath id="6ea770c372"><path d="M 393 193.738281 L 532 193.738281 L 532 558 L 393 558 Z M 393 193.738281 " clip-rule="nonzero"/></clipPath><clipPath id="d32c7174e9"><path d="M 272.394531 193.738281 L 518 193.738281 L 518 558 L 272.394531 558 Z M 272.394531 193.738281 " clip-rule="nonzero"/></clipPath></defs><rect x="-81" width="972" fill="#ffffff" y="-80.999999" height="971.999992" fill-opacity="1"/><rect x="-81" width="972" fill="#f5f5f5" y="-80.999999" height="971.999992" fill-opacity="1"/><g clip-path="url(#f91c10346d)"><g clip-path="url(#5361c3aeab)"><path fill="#f5f5f5" d="M 308.421875 233.652344 L 479.769531 233.652344 L 479.769531 405 L 308.421875 405 Z M 308.421875 233.652344 " fill-opacity="1" fill-rule="nonzero"/></g></g><g clip-path="url(#dfb4b8d038)"><path fill="#000000" d="M 474.300781 510.660156 L 525.96875 616.128906 L 283.746094 616.128906 L 335.390625 510.660156 L 346.84375 510.660156 C 349.902344 515.679688 353.121094 520.542969 356.457031 525.113281 L 344.441406 525.113281 L 306.9375 601.679688 L 502.753906 601.679688 L 465.261719 525.113281 L 453.246094 525.113281 C 456.582031 520.578125 459.800781 515.710938 462.847656 510.660156 Z M 394.003906 452.597656 L 430.261719 452.597656 C 434.925781 452.597656 440.25 456.828125 442.367188 462.226562 L 449.199219 479.625 C 449.378906 479.605469 449.550781 479.5625 449.742188 479.5625 L 454.988281 479.5625 C 457.953125 479.558594 460.367188 482.289062 460.367188 485.667969 C 460.367188 489.039062 457.953125 491.773438 454.988281 491.773438 L 453.671875 491.773438 C 453.671875 491.78125 453.675781 491.785156 453.675781 491.796875 C 454.390625 493.90625 454.789062 496.207031 454.789062 498.621094 L 454.789062 505.773438 C 454.789062 512.765625 453.082031 518.804688 449.21875 521.746094 L 449.21875 529.601562 C 449.21875 533.546875 446.398438 536.746094 442.925781 536.746094 L 437.152344 536.746094 C 433.683594 536.746094 430.859375 533.542969 430.859375 529.601562 L 430.859375 523.640625 L 379.707031 523.640625 L 379.707031 529.601562 C 379.707031 533.546875 376.886719 536.746094 373.410156 536.746094 L 367.632812 536.746094 C 364.160156 536.746094 361.339844 533.542969 361.339844 529.601562 L 361.339844 521.746094 C 357.484375 518.804688 355.773438 512.769531 355.773438 505.773438 L 355.773438 498.621094 C 355.773438 496.210938 356.167969 493.910156 356.878906 491.804688 C 356.878906 491.796875 356.886719 491.785156 356.886719 491.773438 L 355.566406 491.773438 C 352.59375 491.773438 350.1875 489.039062 350.1875 485.671875 C 350.1875 482.296875 352.59375 479.5625 355.566406 479.5625 L 360.808594 479.5625 C 361 479.5625 361.175781 479.605469 361.355469 479.625 L 368.1875 462.234375 C 370.34375 456.738281 375.546875 452.597656 380.289062 452.597656 Z M 369.578125 483.8125 C 369.578125 489.320312 441.992188 489.3125 441.992188 483.808594 C 441.992188 483.101562 441.855469 482.214844 441.847656 482.15625 C 440.5625 476.992188 435.636719 466.324219 435.636719 466.324219 C 434.441406 463.285156 431.449219 460.929688 429.671875 460.929688 L 381.914062 460.929688 C 380.136719 460.929688 377.140625 463.285156 375.945312 466.328125 C 375.945312 466.328125 371.613281 476.242188 369.730469 482.160156 C 369.710938 482.214844 369.578125 483.105469 369.578125 483.8125 Z M 383.632812 507.496094 C 383.632812 503.167969 380.109375 499.640625 375.761719 499.640625 C 371.421875 499.640625 367.894531 503.160156 367.894531 507.496094 C 367.894531 511.832031 371.417969 515.347656 375.761719 515.347656 C 380.109375 515.351562 383.632812 511.835938 383.632812 507.496094 Z M 444.625 507.496094 C 444.625 503.167969 441.105469 499.640625 436.757812 499.640625 C 432.414062 499.640625 428.886719 503.160156 428.886719 507.496094 C 428.886719 511.832031 432.40625 515.347656 436.757812 515.347656 C 441.109375 515.347656 444.625 511.835938 444.625 507.496094 Z M 393.609375 505.527344 C 392.910156 505.527344 392.347656 506.09375 392.347656 506.792969 C 392.347656 507.488281 392.910156 508.054688 393.609375 508.054688 L 418.066406 508.054688 C 418.761719 508.054688 419.328125 507.488281 419.328125 506.792969 C 419.328125 506.09375 418.761719 505.527344 418.066406 505.527344 Z M 393.609375 511.417969 C 392.910156 511.417969 392.347656 511.984375 392.347656 512.679688 C 392.347656 513.378906 392.910156 513.945312 393.609375 513.945312 L 418.066406 513.945312 C 418.761719 513.945312 419.328125 513.378906 419.328125 512.679688 C 419.328125 511.984375 418.761719 511.417969 418.066406 511.417969 Z M 393.609375 511.417969 " fill-opacity="1" fill-rule="evenodd"/></g><g clip-path="url(#6ea770c372)"><path fill="#f8a21e" d="M 408.695312 193.976562 C 405.6875 193.976562 402.695312 194.121094 399.734375 194.335938 L 399.734375 239.539062 C 402.675781 239.199219 405.671875 239.011719 408.695312 239.011719 C 451.75 239.011719 486.644531 273.921875 486.644531 316.996094 C 486.644531 360.070312 451.75 394.976562 408.695312 394.976562 C 405.671875 394.976562 402.675781 394.789062 399.734375 394.449219 L 399.734375 547.484375 C 400.601562 548.796875 392.714844 557.082031 394.074219 557.0625 C 396.878906 557.03125 407.011719 557.132812 408.695312 557.132812 C 410.839844 557.132812 411.230469 557.03125 415.566406 550.617188 C 441.394531 512.339844 531.414062 374.816406 531.414062 316.738281 C 531.414062 248.929688 476.472656 193.976562 408.695312 193.976562 " fill-opacity="1" fill-rule="nonzero"/></g><g clip-path="url(#d32c7174e9)"><path fill="#000000" d="M 395.09375 394.976562 C 352.039062 394.976562 317.148438 360.070312 317.148438 316.996094 C 317.148438 273.921875 352.039062 239.011719 395.09375 239.011719 C 438.148438 239.011719 473.039062 273.921875 473.039062 316.996094 C 473.039062 360.070312 438.148438 394.976562 395.09375 394.976562 Z M 395.09375 193.964844 C 327.316406 193.964844 272.375 248.921875 272.375 316.730469 C 272.375 375.082031 363.261719 513.640625 388.597656 551.152344 C 392.714844 557.226562 393.410156 557.125 395.09375 557.125 C 397.21875 557.125 397.628906 557.019531 401.945312 550.609375 C 427.792969 512.332031 517.792969 374.808594 517.792969 316.730469 C 517.792969 248.921875 462.855469 193.964844 395.09375 193.964844 " fill-opacity="1" fill-rule="nonzero"/></g><g fill="#f8a21e" fill-opacity="1"><g transform="translate(361.39616, 353.608792)"><g><path d="M 26.21875 -74.9375 L 26.21875 -50.546875 L 57 -50.546875 L 57 -37.953125 L 26.21875 -37.953125 L 26.21875 -13.078125 L 65.265625 -13.078125 L 65.265625 0 L 9.796875 0 L 9.796875 -87.953125 L 65.265625 -87.953125 L 65.265625 -74.9375 Z M 26.21875 -74.9375 "/></g></g></g><g fill="#000000" fill-opacity="1"><g transform="translate(357.142661, 359.473713)"><g><path d="M 26.296875 -75.15625 L 26.296875 -50.6875 L 57.15625 -50.6875 L 57.15625 -38.0625 L 26.296875 -38.0625 L 26.296875 -13.109375 L 65.453125 -13.109375 L 65.453125 0 L 9.828125 0 L 9.828125 -88.203125 L 65.453125 -88.203125 L 65.453125 -75.15625 Z M 26.296875 -75.15625 "/></g></g></g></svg>